<mxfile host="Electron" agent="Mozilla/5.0 (Macintosh; Intel Mac OS X 10_15_7) AppleWebKit/537.36 (KHTML, like Gecko) draw.io/26.2.15 Chrome/134.0.6998.205 Electron/35.2.1 Safari/537.36" version="26.2.15">
  <diagram id="IVMuuHdhxNE1200n3CgU" name="silver_layer">
    <mxGraphModel dx="2789" dy="1863" grid="1" gridSize="10" guides="1" tooltips="1" connect="1" arrows="1" fold="1" page="1" pageScale="1" pageWidth="2336" pageHeight="1654" math="0" shadow="0">
      <root>
        <mxCell id="0" />
        <mxCell id="1" parent="0" />
        <mxCell id="3xq3wK-VKIbIQIZZ-HUH-1" value="&lt;b&gt;&lt;font style=&quot;font-size: 24px;&quot;&gt;Silver Layer&lt;/font&gt;&lt;/b&gt;" style="rounded=0;whiteSpace=wrap;html=1;fillColor=#f5f5f5;strokeColor=#666666;shadow=1;fontColor=#333333;" parent="1" vertex="1">
          <mxGeometry x="1088" y="64" width="180" height="60" as="geometry" />
        </mxCell>
        <mxCell id="3xq3wK-VKIbIQIZZ-HUH-2" value="" style="editableCssRules=.*;html=1;shape=image;verticalLabelPosition=bottom;labelBackgroundColor=#ffffff;verticalAlign=top;aspect=fixed;imageAspect=0;image=data:image/svg+xml,PHN2ZyB4bWxucz0iaHR0cDovL3d3dy53My5vcmcvMjAwMC9zdmciIHhtbG5zOnY9Imh0dHBzOi8vdmVjdGEuaW8vbmFubyIgd2lkdGg9IjE0LjY1OTk5OTg0NzQxMjExIiBoZWlnaHQ9IjIwIiB2aWV3Qm94PSIwIDAgMTQuNjU5OTk5ODQ3NDEyMTEgMjAiIHN0eWxlPSJjb2xvci1zY2hlbWU6IGxpZ2h0IGRhcms7Ij4mI3hhOwk8c3R5bGUgdHlwZT0idGV4dC9jc3MiPi5zdDAgeyBmaWxsOiBsaWdodC1kYXJrKHJnYigxMjgsIDEyOCwgMTI4KSwgcmdiKDY2LCAxMzMsIDI0NCkpOyB9IC5zdDEgeyBmaWxsOiBsaWdodC1kYXJrKHJnYigxMjgsIDEyOCwgMTI4KSwgcmdiKDY2LCAxMzMsIDI0NCkpOyB9IC5zdDIgeyBmaWxsOiBsaWdodC1kYXJrKHJnYigxMjgsIDEyOCwgMTI4KSwgcmdiKDY2LCAxMzMsIDI0NCkpOyB9IDwvc3R5bGU+JiN4YTsJPHN0eWxlPiYjeGE7CQkuRHtmaWxsLXJ1bGU6ZXZlbm9kZH0mI3hhOwk8L3N0eWxlPiYjeGE7CTxwYXRoIGQ9Ik03LjMzIDE1LjM1di0zLjAxTDAgOC40NHYzLjAxem0wIDQuNjV2LTMuMDFMMCAxMy4wOXYzLjAxeiIgY2xhc3M9InN0MiBEIi8+JiN4YTsJPHBhdGggZD0iTTE0LjY2IDguNDRsLTcuMzMgMy45djMuMDFsNy4zMy0zLjl6bTAgNC42NWwtNy4zMyAzLjlWMjBsNy4zMy0zLjl6IiBjbGFzcz0ic3QxIEQiLz4mI3hhOwk8cGF0aCBkPSJNNy4zMyAwdjMuMDFsNy4zMyAzLjlWMy45eiIgY2xhc3M9InN0MCBEIi8+JiN4YTsJPHBhdGggZD0iTTAgNi45MWw3LjMzLTMuOVYwTDAgMy45eiIgY2xhc3M9IkQgc3QxIi8+JiN4YTsJPHBhdGggZD0iTTcuMzMgMTAuNzlWNy43N0wwIDMuODd2My4wMnoiIGNsYXNzPSJEIHN0MiIvPiYjeGE7CTxwYXRoIGQ9Ik0xNC42NiAzLjg3bC03LjMzIDMuOXYzLjAybDcuMzMtMy45eiIgY2xhc3M9IkQgc3QxIi8+JiN4YTs8L3N2Zz4=;" parent="1" vertex="1">
          <mxGeometry x="1040" y="64" width="45" height="60" as="geometry" />
        </mxCell>
        <mxCell id="3xq3wK-VKIbIQIZZ-HUH-3" value="&lt;span style=&quot;font-size: 14px;&quot;&gt;&lt;b&gt;Explore &lt;/b&gt;&amp;amp;&lt;b&gt; Understand&lt;/b&gt;&lt;/span&gt;&lt;div&gt;&lt;span style=&quot;font-size: 14px;&quot;&gt;the Data&lt;/span&gt;&lt;/div&gt;" style="rounded=1;whiteSpace=wrap;html=1;arcSize=5;shadow=1;shadowOpacity=100;shadowOffsetY=6;shadowOffsetX=6;shadowBlur=0;" parent="1" vertex="1">
          <mxGeometry x="563" y="224" width="220" height="60" as="geometry" />
        </mxCell>
        <mxCell id="3xq3wK-VKIbIQIZZ-HUH-4" value="&lt;b&gt;&lt;font style=&quot;font-size: 15px;&quot;&gt;Analysing&lt;/font&gt;&lt;/b&gt;" style="rounded=0;whiteSpace=wrap;html=1;fillColor=#dae8fc;strokeColor=#6c8ebf;" parent="1" vertex="1">
          <mxGeometry x="593" y="204" width="160" height="30" as="geometry" />
        </mxCell>
        <mxCell id="3xq3wK-VKIbIQIZZ-HUH-5" value="&lt;span style=&quot;font-size: 14px;&quot;&gt;Data&lt;b&gt;&amp;nbsp;Cleansing&lt;/b&gt;&lt;/span&gt;" style="rounded=1;whiteSpace=wrap;html=1;arcSize=5;shadow=1;shadowOpacity=100;shadowOffsetX=6;shadowOffsetY=6;shadowBlur=0;" parent="1" vertex="1">
          <mxGeometry x="902" y="224" width="220" height="60" as="geometry" />
        </mxCell>
        <mxCell id="3xq3wK-VKIbIQIZZ-HUH-6" value="&lt;b&gt;&lt;font style=&quot;font-size: 15px;&quot;&gt;Coding&lt;/font&gt;&lt;/b&gt;" style="rounded=0;whiteSpace=wrap;html=1;fillColor=#dae8fc;strokeColor=#6c8ebf;" parent="1" vertex="1">
          <mxGeometry x="932" y="204" width="160" height="30" as="geometry" />
        </mxCell>
        <mxCell id="3xq3wK-VKIbIQIZZ-HUH-7" value="" style="html=1;shadow=0;dashed=0;align=center;verticalAlign=middle;shape=mxgraph.arrows2.arrow;dy=0;dx=30;notch=30;fillColor=#000000;" parent="1" vertex="1">
          <mxGeometry x="813" y="229" width="60" height="50" as="geometry" />
        </mxCell>
        <mxCell id="3xq3wK-VKIbIQIZZ-HUH-8" value="&lt;span style=&quot;font-size: 14px;&quot;&gt;Data &lt;b&gt;Correctness&lt;/b&gt; Checks&lt;/span&gt;" style="rounded=1;whiteSpace=wrap;html=1;arcSize=5;shadow=1;shadowOpacity=100;shadowOffsetX=6;shadowOffsetY=6;shadowBlur=0;" parent="1" vertex="1">
          <mxGeometry x="1233" y="224" width="220" height="60" as="geometry" />
        </mxCell>
        <mxCell id="3xq3wK-VKIbIQIZZ-HUH-9" value="&lt;b&gt;&lt;font style=&quot;font-size: 15px;&quot;&gt;Validating&lt;/font&gt;&lt;/b&gt;" style="rounded=0;whiteSpace=wrap;html=1;fillColor=#dae8fc;strokeColor=#6c8ebf;" parent="1" vertex="1">
          <mxGeometry x="1263" y="204" width="160" height="30" as="geometry" />
        </mxCell>
        <mxCell id="3xq3wK-VKIbIQIZZ-HUH-10" value="" style="html=1;shadow=0;dashed=0;align=center;verticalAlign=middle;shape=mxgraph.arrows2.arrow;dy=0;dx=30;notch=30;fillColor=#000000;" parent="1" vertex="1">
          <mxGeometry x="1153" y="229" width="60" height="50" as="geometry" />
        </mxCell>
        <mxCell id="3xq3wK-VKIbIQIZZ-HUH-11" value="" style="html=1;shadow=0;dashed=0;align=center;verticalAlign=middle;shape=mxgraph.arrows2.arrow;dy=0;dx=30;notch=30;fillColor=#000000;" parent="1" vertex="1">
          <mxGeometry x="1483" y="229" width="60" height="50" as="geometry" />
        </mxCell>
        <mxCell id="3xq3wK-VKIbIQIZZ-HUH-12" value="&lt;span style=&quot;font-size: 14px;&quot;&gt;Data &lt;b&gt;Documenting&lt;/b&gt;&lt;/span&gt;&lt;div&gt;&lt;span style=&quot;font-size: 14px;&quot;&gt;Versioning in &lt;b&gt;GIT&lt;/b&gt;&lt;/span&gt;&lt;/div&gt;" style="rounded=1;whiteSpace=wrap;html=1;arcSize=5;shadow=1;shadowOpacity=100;shadowOffsetX=6;shadowOffsetY=6;shadowBlur=0;" parent="1" vertex="1">
          <mxGeometry x="1573" y="224" width="220" height="60" as="geometry" />
        </mxCell>
        <mxCell id="3xq3wK-VKIbIQIZZ-HUH-13" value="&lt;b&gt;&lt;font style=&quot;font-size: 15px;&quot;&gt;Docs &amp;amp; Version&lt;/font&gt;&lt;/b&gt;" style="rounded=0;whiteSpace=wrap;html=1;fillColor=#dae8fc;strokeColor=#6c8ebf;" parent="1" vertex="1">
          <mxGeometry x="1603" y="204" width="160" height="30" as="geometry" />
        </mxCell>
        <mxCell id="3xq3wK-VKIbIQIZZ-HUH-14" value="" style="rounded=1;whiteSpace=wrap;html=1;arcSize=5;shadow=1;shadowOpacity=100;shadowOffsetX=4;" parent="1" vertex="1">
          <mxGeometry x="890" y="730" width="400" height="260" as="geometry" />
        </mxCell>
        <mxCell id="3xq3wK-VKIbIQIZZ-HUH-15" value="&lt;font style=&quot;font-size: 18px; color: rgb(255, 255, 255);&quot;&gt;&lt;b&gt;Business Context &amp;amp; Ownership&lt;/b&gt;&lt;/font&gt;" style="rounded=0;whiteSpace=wrap;html=1;fillColor=#000000;shadow=1;" parent="1" vertex="1">
          <mxGeometry x="935" y="710" width="310" height="40" as="geometry" />
        </mxCell>
        <mxCell id="3xq3wK-VKIbIQIZZ-HUH-16" value="&lt;font style=&quot;font-size: 15px;&quot;&gt;Who &lt;b style=&quot;&quot;&gt;own&lt;/b&gt; the &lt;b style=&quot;&quot;&gt;data&lt;/b&gt; ?&lt;/font&gt;" style="rounded=0;whiteSpace=wrap;html=1;shadow=1;" parent="1" vertex="1">
          <mxGeometry x="900" y="780" width="380" height="40" as="geometry" />
        </mxCell>
        <mxCell id="3xq3wK-VKIbIQIZZ-HUH-17" value="&lt;span style=&quot;font-size: 15px;&quot;&gt;What &lt;b&gt;Business Process&lt;/b&gt; it supports ?&lt;/span&gt;" style="rounded=0;whiteSpace=wrap;html=1;shadow=1;" parent="1" vertex="1">
          <mxGeometry x="900" y="830" width="380" height="40" as="geometry" />
        </mxCell>
        <mxCell id="3xq3wK-VKIbIQIZZ-HUH-18" value="&lt;span style=&quot;font-size: 15px;&quot;&gt;System &amp;amp; Data &lt;b&gt;documentation&lt;/b&gt;&lt;/span&gt;" style="rounded=0;whiteSpace=wrap;html=1;shadow=1;" parent="1" vertex="1">
          <mxGeometry x="900" y="880" width="380" height="40" as="geometry" />
        </mxCell>
        <mxCell id="3xq3wK-VKIbIQIZZ-HUH-19" value="&lt;span style=&quot;font-size: 15px;&quot;&gt;Data &lt;b&gt;Model&lt;/b&gt; &amp;amp; Data &lt;b&gt;Catalog&lt;/b&gt;&lt;/span&gt;" style="rounded=0;whiteSpace=wrap;html=1;shadow=1;" parent="1" vertex="1">
          <mxGeometry x="900" y="930" width="380" height="40" as="geometry" />
        </mxCell>
        <mxCell id="3xq3wK-VKIbIQIZZ-HUH-20" value="" style="rounded=1;whiteSpace=wrap;html=1;arcSize=5;shadow=1;shadowOpacity=100;shadowOffsetX=5;" parent="1" vertex="1">
          <mxGeometry x="890" y="1060" width="400" height="180" as="geometry" />
        </mxCell>
        <mxCell id="3xq3wK-VKIbIQIZZ-HUH-21" value="&lt;font style=&quot;font-size: 18px; color: rgb(255, 255, 255);&quot;&gt;&lt;b&gt;Architecture &amp;amp; Technology Stack&lt;/b&gt;&lt;/font&gt;" style="rounded=0;whiteSpace=wrap;html=1;fillColor=#000000;shadow=1;" parent="1" vertex="1">
          <mxGeometry x="935" y="1040" width="310" height="40" as="geometry" />
        </mxCell>
        <mxCell id="3xq3wK-VKIbIQIZZ-HUH-22" value="&lt;span style=&quot;font-size: 15px;&quot;&gt;How is data &lt;b&gt;stored&lt;/b&gt; ?&lt;/span&gt;&lt;div&gt;&lt;span style=&quot;font-size: 15px;&quot;&gt;(SQL Server, Oracle, AWS, Azure, ...)&lt;/span&gt;&lt;/div&gt;" style="rounded=0;whiteSpace=wrap;html=1;shadow=1;" parent="1" vertex="1">
          <mxGeometry x="900" y="1110" width="380" height="50" as="geometry" />
        </mxCell>
        <mxCell id="3xq3wK-VKIbIQIZZ-HUH-23" value="&lt;span style=&quot;font-size: 15px;&quot;&gt;What are the &lt;b&gt;Integration capabilities &lt;/b&gt;?&lt;/span&gt;&lt;div&gt;&lt;span style=&quot;font-size: 15px;&quot;&gt;(API, Kafka, File Extract, Direct DB, ...)&lt;/span&gt;&lt;/div&gt;" style="rounded=0;whiteSpace=wrap;html=1;shadow=1;" parent="1" vertex="1">
          <mxGeometry x="900" y="1170" width="380" height="50" as="geometry" />
        </mxCell>
        <mxCell id="3xq3wK-VKIbIQIZZ-HUH-24" value="" style="rounded=1;whiteSpace=wrap;html=1;arcSize=5;shadow=1;shadowOpacity=100;shadowOffsetX=5;" parent="1" vertex="1">
          <mxGeometry x="1393" y="680" width="400" height="380" as="geometry" />
        </mxCell>
        <mxCell id="3xq3wK-VKIbIQIZZ-HUH-25" value="&lt;font style=&quot;font-size: 18px; color: rgb(255, 255, 255);&quot;&gt;&lt;b&gt;Extract &amp;amp; Load&lt;/b&gt;&lt;/font&gt;" style="rounded=0;whiteSpace=wrap;html=1;fillColor=#000000;shadow=1;" parent="1" vertex="1">
          <mxGeometry x="1438" y="660" width="310" height="40" as="geometry" />
        </mxCell>
        <mxCell id="3xq3wK-VKIbIQIZZ-HUH-26" value="&lt;span style=&quot;font-size: 15px;&quot;&gt;&lt;b&gt;Incremental &lt;/b&gt;vs. &lt;b&gt;Full Loads&lt;/b&gt;&amp;nbsp;?&lt;/span&gt;" style="rounded=0;whiteSpace=wrap;html=1;shadow=1;" parent="1" vertex="1">
          <mxGeometry x="1403" y="730" width="380" height="40" as="geometry" />
        </mxCell>
        <mxCell id="3xq3wK-VKIbIQIZZ-HUH-27" value="&lt;span style=&quot;font-size: 15px;&quot;&gt;Data &lt;b&gt;Scope &lt;/b&gt;&amp;amp; &lt;b&gt;Historical &lt;/b&gt;Needs&lt;/span&gt;" style="rounded=0;whiteSpace=wrap;html=1;shadow=1;" parent="1" vertex="1">
          <mxGeometry x="1403" y="780" width="380" height="40" as="geometry" />
        </mxCell>
        <mxCell id="3xq3wK-VKIbIQIZZ-HUH-28" value="&lt;span style=&quot;font-size: 15px;&quot;&gt;What is the expected &lt;b&gt;size &lt;/b&gt;of the &lt;b&gt;extracts &lt;/b&gt;?&lt;/span&gt;" style="rounded=0;whiteSpace=wrap;html=1;shadow=1;" parent="1" vertex="1">
          <mxGeometry x="1403" y="830" width="380" height="40" as="geometry" />
        </mxCell>
        <mxCell id="3xq3wK-VKIbIQIZZ-HUH-29" value="&lt;span style=&quot;font-size: 15px;&quot;&gt;Are there any data &lt;b&gt;volume limitations &lt;/b&gt;?&lt;/span&gt;" style="rounded=0;whiteSpace=wrap;html=1;shadow=1;" parent="1" vertex="1">
          <mxGeometry x="1403" y="880" width="380" height="40" as="geometry" />
        </mxCell>
        <mxCell id="3xq3wK-VKIbIQIZZ-HUH-30" value="&lt;span style=&quot;font-size: 15px;&quot;&gt;How to &lt;b&gt;avoid impacting &lt;/b&gt;the source&lt;/span&gt;&lt;div&gt;&lt;span style=&quot;font-size: 15px;&quot;&gt;system&#39;s &lt;b&gt;performance &lt;/b&gt;?&lt;/span&gt;&lt;/div&gt;" style="rounded=0;whiteSpace=wrap;html=1;shadow=1;" parent="1" vertex="1">
          <mxGeometry x="1403" y="930" width="380" height="50" as="geometry" />
        </mxCell>
        <mxCell id="3xq3wK-VKIbIQIZZ-HUH-31" value="&lt;span style=&quot;font-size: 15px;&quot;&gt;&lt;b&gt;authentication &lt;/b&gt;and &lt;b&gt;authorization&lt;/b&gt;&lt;/span&gt;&lt;div&gt;&lt;span style=&quot;font-size: 15px;&quot;&gt;(tokens, SSH keys, VPN, IP whitelisting, ...)&lt;/span&gt;&lt;/div&gt;" style="rounded=0;whiteSpace=wrap;html=1;shadow=1;" parent="1" vertex="1">
          <mxGeometry x="1403" y="990" width="380" height="50" as="geometry" />
        </mxCell>
        <mxCell id="3xq3wK-VKIbIQIZZ-HUH-32" value="&lt;font style=&quot;font-size: 60px;&quot;&gt;\Rahul-404&lt;/font&gt;" style="rounded=0;whiteSpace=wrap;html=1;align=right;" parent="1" vertex="1">
          <mxGeometry x="1940" y="1534" width="390" height="120" as="geometry" />
        </mxCell>
        <mxCell id="3xq3wK-VKIbIQIZZ-HUH-33" value="" style="dashed=0;outlineConnect=0;html=1;align=center;labelPosition=center;verticalLabelPosition=bottom;verticalAlign=top;shape=mxgraph.weblogos.github;strokeWidth=1;" parent="1" vertex="1">
          <mxGeometry x="1950" y="1556.5" width="70" height="75" as="geometry" />
        </mxCell>
        <mxCell id="3xq3wK-VKIbIQIZZ-HUH-34" value="&lt;b&gt;Check Quality&lt;/b&gt;&lt;div&gt;Of &lt;b&gt;Bronze&lt;/b&gt;&lt;/div&gt;" style="rounded=0;whiteSpace=wrap;html=1;fillColor=#d5e8d4;strokeColor=#82b366;" parent="1" vertex="1">
          <mxGeometry x="779" y="360" width="140" height="40" as="geometry" />
        </mxCell>
        <mxCell id="3xq3wK-VKIbIQIZZ-HUH-35" value="Write&lt;b&gt; Data&lt;/b&gt;&lt;div&gt;&lt;b&gt;Transformation&lt;/b&gt;&lt;/div&gt;" style="rounded=0;whiteSpace=wrap;html=1;fillColor=#d5e8d4;strokeColor=#82b366;" parent="1" vertex="1">
          <mxGeometry x="952" y="360" width="140" height="40" as="geometry" />
        </mxCell>
        <mxCell id="3xq3wK-VKIbIQIZZ-HUH-36" value="&lt;b&gt;Insert &lt;/b&gt;into&lt;div&gt;&lt;b&gt;Silver&lt;/b&gt;&lt;/div&gt;" style="rounded=0;whiteSpace=wrap;html=1;fillColor=#d5e8d4;strokeColor=#82b366;" parent="1" vertex="1">
          <mxGeometry x="1125" y="360" width="140" height="40" as="geometry" />
        </mxCell>
        <mxCell id="3xq3wK-VKIbIQIZZ-HUH-37" value="" style="html=1;shadow=0;dashed=0;align=center;verticalAlign=middle;shape=mxgraph.arrows2.arrow;dy=0;dx=13;notch=12.52;fillColor=#000000;" parent="1" vertex="1">
          <mxGeometry x="921" y="365" width="30" height="30" as="geometry" />
        </mxCell>
        <mxCell id="3xq3wK-VKIbIQIZZ-HUH-38" value="" style="html=1;shadow=0;dashed=0;align=center;verticalAlign=middle;shape=mxgraph.arrows2.arrow;dy=0;dx=13;notch=12.52;fillColor=#000000;" parent="1" vertex="1">
          <mxGeometry x="1094" y="365" width="30" height="30" as="geometry" />
        </mxCell>
        <mxCell id="3xq3wK-VKIbIQIZZ-HUH-40" value="" style="endArrow=none;html=1;rounded=0;exitX=0;exitY=0;exitDx=0;exitDy=0;entryX=0;entryY=1;entryDx=0;entryDy=0;dashed=1;" parent="1" source="3xq3wK-VKIbIQIZZ-HUH-34" target="3xq3wK-VKIbIQIZZ-HUH-5" edge="1">
          <mxGeometry width="50" height="50" relative="1" as="geometry">
            <mxPoint x="1060" y="400" as="sourcePoint" />
            <mxPoint x="1110" y="350" as="targetPoint" />
          </mxGeometry>
        </mxCell>
        <mxCell id="3xq3wK-VKIbIQIZZ-HUH-41" value="" style="endArrow=none;html=1;rounded=0;exitX=1;exitY=0;exitDx=0;exitDy=0;entryX=1;entryY=1;entryDx=0;entryDy=0;dashed=1;" parent="1" source="3xq3wK-VKIbIQIZZ-HUH-36" target="3xq3wK-VKIbIQIZZ-HUH-5" edge="1">
          <mxGeometry width="50" height="50" relative="1" as="geometry">
            <mxPoint x="940" y="366" as="sourcePoint" />
            <mxPoint x="1063" y="290" as="targetPoint" />
          </mxGeometry>
        </mxCell>
        <mxCell id="3xq3wK-VKIbIQIZZ-HUH-43" style="edgeStyle=orthogonalEdgeStyle;rounded=0;orthogonalLoop=1;jettySize=auto;html=1;entryX=0.5;entryY=0;entryDx=0;entryDy=0;curved=1;dashed=1;strokeColor=#808080;" parent="1" source="3xq3wK-VKIbIQIZZ-HUH-42" target="3xq3wK-VKIbIQIZZ-HUH-13" edge="1">
          <mxGeometry relative="1" as="geometry">
            <Array as="points">
              <mxPoint x="1630" y="135" />
              <mxPoint x="1630" y="182" />
              <mxPoint x="1683" y="182" />
            </Array>
          </mxGeometry>
        </mxCell>
        <mxCell id="3xq3wK-VKIbIQIZZ-HUH-42" value="&lt;font face=&quot;Comic Sans MS&quot; style=&quot;font-size: 15px;&quot;&gt;Data Flow&lt;/font&gt;&lt;div&gt;&lt;font face=&quot;Comic Sans MS&quot; style=&quot;font-size: 15px;&quot;&gt;Data Integration&lt;/font&gt;&lt;/div&gt;" style="text;html=1;align=left;verticalAlign=middle;whiteSpace=wrap;rounded=0;" parent="1" vertex="1">
          <mxGeometry x="1673" y="110" width="137" height="50" as="geometry" />
        </mxCell>
      </root>
    </mxGraphModel>
  </diagram>
</mxfile>
